<?xml version="1.0" encoding="UTF-8" standalone="no"?>
<!-- Created with Inkscape (http://www.inkscape.org/) -->

<svg
   style=" background-color: #000;"
   xmlns:dc="http://purl.org/dc/elements/1.1/"
   xmlns:cc="http://creativecommons.org/ns#"
   xmlns:rdf="http://www.w3.org/1999/02/22-rdf-syntax-ns#"
   xmlns:svg="http://www.w3.org/2000/svg"
   xmlns="http://www.w3.org/2000/svg"
   xmlns:sodipodi="http://sodipodi.sourceforge.net/DTD/sodipodi-0.dtd"
   xmlns:inkscape="http://www.inkscape.org/namespaces/inkscape"
   width="449.93228"
   height="449.93228"
   viewBox="0 0 449.93228 449.93228"
   version="1.1"
   id="svg8"
   sodipodi:docname="hoves2.svg"
   inkscape:version="0.92.3 (2405546, 2018-03-11)">
  <defs
     id="defs2" />
  <sodipodi:namedview
     id="base"
     pagecolor="#fff"
     bordercolor="#666666"
     borderopacity="1.0"
     inkscape:pageopacity="0.0"
     inkscape:pageshadow="2"
     inkscape:zoom="0.49497475"
     inkscape:cx="270.0143"
     inkscape:cy="190.55882"
     inkscape:document-units="px"
     inkscape:current-layer="g942"
     showgrid="false"
     units="px"

     inkscape:window-width="1280"
     inkscape:window-height="778"
     inkscape:window-x="-8"
     inkscape:window-y="-8"
     inkscape:window-maximized="1" />
  <metadata
     id="metadata5">
    <rdf:RDF>
      <cc:Work
         rdf:about="">
        <dc:format>image/svg+xml</dc:format>
        <dc:type
           rdf:resource="http://purl.org/dc/dcmitype/StillImage" />
        <dc:title></dc:title>
      </cc:Work>
    </rdf:RDF>
  </metadata>
  <g
     inkscape:label="Layer 1"
     inkscape:groupmode="layer"
     id="layer1"
     transform="translate(121.71918,83.28338)">
    <g
       id="g942"
       transform="matrix(5.9449089,0,0,5.9449089,-510.54683,-700.60831)">
      <circle
         inkscape:export-ydpi="96"
         inkscape:export-xdpi="96"
         r="35.82328"
         cy="141.68275"
         cx="103.24696"
         style="opacity:1;vector-effect:none;fill:#ffd431;fill-opacity:1;fill-rule:nonzero;stroke:none;stroke-width:0.79168409;stroke-linecap:round;stroke-linejoin:round;stroke-miterlimit:4;stroke-dasharray:none;stroke-dashoffset:0;stroke-opacity:1;paint-order:markers stroke fill"
         id="circle1265" />
      <path
         inkscape:connector-curvature="0"
         style="color:#000000;font-style:normal;font-variant:normal;font-weight:normal;font-stretch:normal;font-size:medium;line-height:normal;font-family:sans-serif;font-variant-ligatures:normal;font-variant-position:normal;font-variant-caps:normal;font-variant-numeric:normal;font-variant-alternates:normal;font-feature-settings:normal;text-indent:0;text-align:start;text-decoration:none;text-decoration-line:none;text-decoration-style:solid;text-decoration-color:#000000;letter-spacing:normal;word-spacing:normal;text-transform:none;writing-mode:lr-tb;direction:ltr;text-orientation:mixed;dominant-baseline:auto;baseline-shift:baseline;text-anchor:start;white-space:normal;shape-padding:0;clip-rule:nonzero;display:inline;overflow:visible;visibility:visible;opacity:1;isolation:auto;mix-blend-mode:normal;color-interpolation:sRGB;color-interpolation-filters:linearRGB;solid-color:#000000;solid-opacity:1;vector-effect:none;fill:#111a1e;fill-opacity:1;fill-rule:nonzero;stroke:none;stroke-width:3.57026744;stroke-linecap:round;stroke-linejoin:round;stroke-miterlimit:4;stroke-dasharray:none;stroke-dashoffset:0;stroke-opacity:1;paint-order:markers fill stroke;color-rendering:auto;image-rendering:auto;shape-rendering:auto;text-rendering:auto;enable-background:accumulate"
         d="m 94.094253,130.92988 c -0.02908,0 -0.05771,0.002 -0.08673,0.002 -2.048069,0.006 -9.47699,0.0194 -9.47699,0.0194 -1.695261,0.0142 -2.417874,2.16188 -1.076289,3.19831 0,0 0.565371,0.43636 1.459363,1.11605 0.125936,0.0958 0.261257,0.17146 0.401801,0.22932 -1.240803,1.75293 -1.973852,3.88794 -1.973852,6.18833 0,5.91778 4.834908,10.75303 10.752701,10.75303 1.15207,0 2.139651,-0.3848 3.338926,-0.91367 1.199344,-0.52889 2.546985,-1.25041 4.005527,-2.10362 0.6408,-0.37486 1.30402,-0.7776 1.98108,-1.19883 a 1.7853123,1.7853123 0 0 0 0.28155,0.21519 c 1.74688,1.06781 3.37452,1.98657 4.80519,2.66181 1.43067,0.67524 2.56876,1.16959 3.89711,1.16959 5.91772,0 10.75302,-4.83491 10.75302,-10.7527 0,-2.18242 -0.65847,-4.22608 -1.78132,-5.92419 0.96227,-0.73064 1.67127,-1.27374 1.67127,-1.27374 a 1.7853121,1.7853121 0 0 0 -1.07925,-3.19535 c 0,0 -19.59365,-0.16336 -26.3914,-0.18661 -0.02991,-0.002 -0.0587,-0.005 -0.09692,-0.005 h -0.376175 c -0.0069,-2e-5 -0.01038,-2e-5 -0.01511,0 h -3.36e-4 c -0.03123,3.3e-4 -0.510375,0.001 -0.598923,0.001 -0.105823,-1.3e-4 -0.300681,-0.001 -0.394245,-0.001 z m 0,3.56988 c 3.959343,0 16.549527,0.10644 22.465717,0.15442 -2.20119,1.66581 -3.65836,2.83448 -7.70223,5.66168 -3.15038,2.20257 -6.4516,4.40187 -9.222375,6.02275 -1.385427,0.81045 -2.641138,1.47477 -3.642494,1.91636 -1.001287,0.44158 -1.812475,0.61173 -1.898618,0.61173 -3.988266,0 -7.182485,-3.19486 -7.182485,-7.18314 0,-3.98821 3.194219,-7.1838 7.182485,-7.1838 z"
         id="path1267-9" />
    </g>
  </g>
</svg>